<svg xmlns="http://www.w3.org/2000/svg" viewBox="0 0 24 24" fill="none">
  <circle cx="12" cy="12" r="10" fill="#A80030"/>
  <path fill="#fff" d="M12 6.5c-2.2 0-4.2 1.2-5.2 3.1-.3.55-.1 1.25.45 1.55.55.3 1.25.1 1.55-.45.65-1.15 1.85-1.85 3.2-1.85s2.55.7 3.2 1.85c.3.55 1 .75 1.55.45.55-.3.75-1 .45-1.55-1-1.9-3-3.1-5.2-3.1zm-4.5 6.2c-.6 0-1.1.5-1.1 1.1v.3c0 2.5 2 4.5 4.5 4.5h2.2c2.5 0 4.5-2 4.5-4.5v-.3c0-.6-.5-1.1-1.1-1.1s-1.1.5-1.1 1.1v.3c0 1.3-1 2.3-2.3 2.3h-2.2c-1.3 0-2.3-1-2.3-2.3v-.3c0-.6-.5-1.1-1.1-1.1z"/>
</svg>
