<svg xmlns="http://www.w3.org/2000/svg" viewBox="0 0 24 24" fill="#fff">
  <path d="M12 .5C5.65.5.5 5.65.5 12c0 5.1 3.29 9.43 7.86 10.96.58.1.79-.25.79-.56 0-.28-.01-1.02-.02-2-3.2.7-3.88-1.54-3.88-1.54-.53-1.35-1.3-1.71-1.3-1.71-1.06-.73.08-.72.08-.72 1.17.08 1.79 1.2 1.79 1.2 1.04 1.78 2.73 1.27 3.4.97.1-.76.41-1.27.74-1.56-2.55-.29-5.24-1.28-5.24-5.7 0-1.26.45-2.29 1.18-3.1-.12-.29-.51-1.47.11-3.06 0 0 .96-.31 3.15 1.18a10.9 10.9 0 0 1 5.76 0c2.19-1.49 3.14-1.18 3.14-1.18.62 1.59.23 2.77.11 3.06.73.81 1.18 1.84 1.18 3.1 0 4.43-2.7 5.4-5.27 5.68.42.36.79 1.08.79 2.18 0 1.58-.01 2.85-.01 3.24 0 .31.21.67.8.55A10.52 10.52 0 0 0 23.5 12C23.5 5.65 18.35.5 12 .5z"/>
</svg>
