<svg xmlns="http://www.w3.org/2000/svg" viewBox="0 0 24 24" fill="none">
  <path fill="#4285F4" d="M22 12.24c0-.82-.07-1.42-.22-2.04H12v3.7h5.68c-.11.93-.74 2.33-2.12 3.27l-.02.13 3.08 2.39.21.02c1.96-1.8 3.09-4.46 3.09-7.47z"/>
  <path fill="#34A853" d="M12 22c2.7 0 4.97-.89 6.62-2.42l-3.15-2.44c-.85.58-1.98 1-3.47 1-2.65 0-4.9-1.79-5.7-4.22l-.12.01-3.08 2.39-.04.11C4.06 19.54 7.7 22 12 22z"/>
  <path fill="#FBBC05" d="M6.3 14.32A5.94 5.94 0 0 1 6 12c0-.82.16-1.61.44-2.32l-.01-.13-3.12-2.43h-.01C1.57 9.48 1 10.7 1 12s.57 2.52 1.3 4.68l3-2.36z"/>
  <path fill="#EA4335" d="M12 5.38c1.88 0 3.15.81 3.87 1.49l2.83-2.77C16.95 2.68 14.7 2 12 2 7.7 2 4.06 4.46 2.3 8.32l3 2.36C6.1 8.19 8.35 5.38 12 5.38z"/>
</svg>
