<svg xmlns="http://www.w3.org/2000/svg" viewBox="0 0 24 24" fill="none">
  <circle cx="12" cy="12" r="10" fill="#1DB954"/>
  <path fill="#fff" d="M16.8 15.2c-3.2-1.9-8.5-2.1-11.6-1.2-.5.15-.9-.2-.9-.65 0-.3.2-.55.5-.65 3.5-1.05 9.3-.85 13-.95.6-.02 1.1.45 1.1 1.05v.1c0 .5-.35.9-.8 1.02-3.4 1-8.9.85-11.5 2.35-.2.12-.45.05-.55-.15-.1-.2-.05-.45.15-.55 1.2-.65 2.9-1.05 5.6-1.2zm-.3-2.8c-2.9-1.7-7.7-1.85-10.4-1-.45.13-.85-.18-.85-.58 0-.27.18-.5.45-.58 3.1-.95 8.3-.8 11.6-.9.55-.02 1 .4 1 .95v.1c0 .45-.32.82-.75.93-2.9.85-7.6.72-9.8 2-.18.1-.4.05-.5-.13-.1-.18-.05-.4.13-.5 1-.55 2.5-.9 4.8-1.02zm-.35-2.75C13 8.1 8.8 8 6.5 8.65c-.4.12-.75-.2-.75-.58 0-.28.2-.5.45-.58 2.6-.78 7.1-.65 9.9-.75.5-.02.92.38.92.88v.08c0 .42-.3.76-.7.86-2.5.72-6.6.62-8.5 1.75-.16.1-.36.05-.45-.12-.1-.17-.05-.36.12-.45.85-.48 2.15-.78 4.1-.88z"/>
</svg>
